<?xml version="1.0" encoding="UTF-8"?>
<!DOCTYPE svg PUBLIC "-//W3C//DTD SVG 1.1//EN" "http://www.w3.org/Graphics/SVG/1.1/DTD/svg11.dtd">
<svg xmlns="http://www.w3.org/2000/svg" version="1.1" width="1303px" height="1186px" style="shape-rendering:geometricPrecision; text-rendering:geometricPrecision; image-rendering:optimizeQuality; fill-rule:evenodd; clip-rule:evenodd" xmlns:xlink="http://www.w3.org/1999/xlink">
<g><path style="opacity:1" fill="#D6CEBA" d="M 303.5,18.5 C 411.818,14.5793 497.652,56.246 561,143.5C 573.004,160.505 582.671,178.838 590,198.5C 592.018,223.63 580.851,239.463 556.5,246C 544.652,247.822 535.152,243.988 528,234.5C 509.795,192.911 482.628,158.411 446.5,131C 375.362,84.0257 301.362,79.0257 224.5,116C 159.136,153.065 120.969,208.898 110,283.5C 105.231,364.428 134.065,430.262 196.5,481C 243.134,513.575 294.8,526.241 351.5,519C 364.683,517.23 377.683,514.563 390.5,511C 401.703,506.987 413.037,503.487 424.5,500.5C 441.595,502.76 451.762,512.426 455,529.5C 457.827,552.652 448.327,568.152 426.5,576C 316.288,612.526 216.955,593.526 128.5,519C 76.7841,471.072 46.6175,411.905 38,341.5C 28.836,253.335 53.5027,176.335 112,110.5C 164.549,56.6443 228.382,25.9776 303.5,18.5 Z"/></g>
<g><path style="opacity:1" fill="#D6CEBA" d="M 344.5,269.5 C 643.5,269.333 942.5,269.5 1241.5,270C 1255.02,274.199 1262.86,283.365 1265,297.5C 1267.2,310.86 1264.2,322.86 1256,333.5C 1113.02,480.81 970.358,628.476 828,776.5C 827.5,881.833 827.333,987.166 827.5,1092.5C 903.501,1092.33 979.501,1092.5 1055.5,1093C 1080.65,1100.46 1089.82,1116.96 1083,1142.5C 1077,1156.26 1066.5,1163.76 1051.5,1165C 880.833,1165.67 710.167,1165.67 539.5,1165C 516.422,1159.7 505.922,1145.2 508,1121.5C 512.25,1106.25 522.083,1096.75 537.5,1093C 609.833,1092.5 682.166,1092.33 754.5,1092.5C 754.667,987.499 754.5,882.499 754,777.5C 610.897,628.308 467.564,479.308 324,330.5C 311.624,309.565 314.458,291.065 332.5,275C 336.481,272.838 340.481,271.005 344.5,269.5 Z"/></g>
</svg>
