<?xml version="1.0" encoding="UTF-8"?>
<!DOCTYPE svg PUBLIC "-//W3C//DTD SVG 1.1//EN" "http://www.w3.org/Graphics/SVG/1.1/DTD/svg11.dtd">
<svg xmlns="http://www.w3.org/2000/svg" version="1.1" width="1292px" height="1292px" style="shape-rendering:geometricPrecision; text-rendering:geometricPrecision; image-rendering:optimizeQuality; fill-rule:evenodd; clip-rule:evenodd" xmlns:xlink="http://www.w3.org/1999/xlink">
<g><path style="opacity:0.995" fill="#D6CEBA" d="M 106.5,56.5 C 171.5,56.5 236.5,56.5 301.5,56.5C 301.283,96.8963 302.783,137.23 306,177.5C 314.759,270.518 323.759,363.518 333,456.5C 360.829,483.017 381.496,514.35 395,550.5C 398.333,767.833 398.333,985.167 395,1202.5C 391.644,1214.52 383.81,1221.69 371.5,1224C 258.831,1227.31 146.165,1227.31 33.5,1224C 26,1220.5 20.5,1215 17,1207.5C 12.3184,1072.38 9.8184,937.212 9.5,802C 9.90036,720.483 11.067,638.983 13,557.5C 21.1686,528.158 34.8353,501.825 54,478.5C 61.3575,470.144 69.0242,462.144 77,454.5C 77.6136,435.538 80.2803,416.871 85,398.5C 90.7727,319.788 97.106,241.121 104,162.5C 105.881,127.191 106.715,91.8581 106.5,56.5 Z M 155.5,105.5 C 189.167,105.5 222.833,105.5 256.5,105.5C 256.824,121.078 256.491,136.578 255.5,152C 222.5,152.667 189.5,152.667 156.5,152C 155.509,136.578 155.176,121.078 155.5,105.5 Z M 146.5,201.5 C 184.5,201.5 222.5,201.5 260.5,201.5C 260.334,208.508 260.5,215.508 261,222.5C 271.056,307.059 280.056,391.725 288,476.5C 338.412,520.708 359.912,576.374 352.5,643.5C 254.833,643.5 157.167,643.5 59.5,643.5C 48.7177,575.108 70.2177,519.441 124,476.5C 129.831,398.691 137.164,321.024 146,243.5C 146.5,229.504 146.667,215.504 146.5,201.5 Z M 189.5,688.5 C 243.833,688.5 298.167,688.5 352.5,688.5C 352.5,787.5 352.5,886.5 352.5,985.5C 254.796,986.932 157.129,985.599 59.5,981.5C 59.5,885.5 59.5,789.5 59.5,693.5C 102.958,691.265 146.292,689.598 189.5,688.5 Z M 190.5,1030.5 C 244.167,1030.5 297.833,1030.5 351.5,1030.5C 353.384,1079.45 352.051,1128.29 347.5,1177C 251.501,1177.5 155.501,1177.67 59.5,1177.5C 59.5,1129.83 59.5,1082.17 59.5,1034.5C 103.33,1033.26 146.996,1031.93 190.5,1030.5 Z"/></g>
<g><path style="opacity:0.995" fill="#D6CEBA" d="M 770.5,252.5 C 802.776,250.516 834.11,255.016 864.5,266C 875.854,270.428 887.02,275.261 898,280.5C 983.768,254.537 1053.77,276.871 1108,347.5C 1144.1,417.826 1136.6,482.826 1085.5,542.5C 1103.4,544.993 1121.4,546.493 1139.5,547C 1163.17,547.333 1186.83,547.667 1210.5,548C 1242.05,559.249 1263.21,580.749 1274,612.5C 1277.33,745.5 1277.33,878.5 1274,1011.5C 1268.36,1024.11 1261.7,1036.11 1254,1047.5C 1240.27,1058.28 1226.11,1068.45 1211.5,1078C 1200.87,1079.15 1190.2,1079.81 1179.5,1080C 1147.92,1080.74 1116.42,1081.24 1085,1081.5C 1084.5,1129.83 1084.33,1178.17 1084.5,1226.5C 888.833,1226.5 693.167,1226.5 497.5,1226.5C 497.667,999.833 497.5,773.166 497,546.5C 422.188,449.521 433.688,364.354 531.5,291C 579.105,270.797 627.938,267.297 678,280.5C 707.329,265.776 738.162,256.442 770.5,252.5 Z M 762.5,301.5 C 779.17,301.333 795.837,301.5 812.5,302C 817.897,302.227 823.231,302.894 828.5,304C 850.649,313.074 872.316,323.24 893.5,334.5C 942.766,311.564 991.1,313.398 1038.5,340C 1079.65,372.781 1093.15,414.614 1079,465.5C 1074.5,474.5 1070,483.5 1065.5,492.5C 1029.55,494.975 993.55,496.475 957.5,497C 902.833,498.404 848.167,498.57 793.5,497.5C 794.386,610.029 793.053,722.529 789.5,835C 790.333,862.845 789.833,890.679 788,918.5C 787.798,920.256 787.298,921.922 786.5,923.5C 778.931,928.079 770.764,930.745 762,931.5C 752.568,931.415 746.568,926.749 744,917.5C 739.493,777.593 737.993,637.593 739.5,497.5C 693.5,498.573 647.5,498.406 601.5,497C 572.105,496.471 542.771,494.971 513.5,492.5C 477.753,412.219 500.087,354.719 580.5,320C 600.168,316.708 619.835,316.708 639.5,320C 654.533,325.233 669.699,330.066 685,334.5C 705.562,324.469 726.062,314.302 746.5,304C 751.956,303.055 757.289,302.222 762.5,301.5 Z M 625.5,542.5 C 648.189,542.22 670.855,542.553 693.5,543.5C 693.5,576.833 693.5,610.167 693.5,643.5C 644.759,644.91 596.092,643.576 547.5,639.5C 547.5,608.833 547.5,578.167 547.5,547.5C 573.603,545.236 599.603,543.57 625.5,542.5 Z M 839.5,543.5 C 904.833,543.5 970.167,543.5 1035.5,543.5C 1035.5,576.833 1035.5,610.167 1035.5,643.5C 970.167,643.5 904.833,643.5 839.5,643.5C 839.5,610.167 839.5,576.833 839.5,543.5 Z M 1085.5,592.5 C 1122.86,592.224 1160.19,593.058 1197.5,595C 1207.2,601.03 1216.04,608.197 1224,616.5C 1225.19,620.381 1225.86,624.381 1226,628.5C 1231.68,726.101 1233.01,823.767 1230,921.5C 1229.03,949.876 1227.36,978.21 1225,1006.5C 1207.97,1027.85 1185.81,1036.02 1158.5,1031C 1133.84,1031.5 1109.17,1031.67 1084.5,1031.5C 1080.73,1014.78 1079.73,997.943 1081.5,981C 1114.5,980.5 1147.5,980.333 1180.5,980.5C 1180.5,868.167 1180.5,755.833 1180.5,643.5C 1147.17,643.5 1113.83,643.5 1080.5,643.5C 1079.43,626.177 1081.1,609.177 1085.5,592.5 Z M 620.5,688.5 C 644.833,688.5 669.167,688.5 693.5,688.5C 693.333,759.834 693.5,831.167 694,902.5C 701.033,966.618 735.866,990.451 798.5,974C 816.101,963.063 828.601,947.896 836,928.5C 837.163,908.855 837.829,889.188 838,869.5C 838.97,810.828 839.304,752.162 839,693.5C 904.273,688.854 969.606,687.521 1035,689.5C 1036.37,852.188 1035.2,1014.85 1031.5,1177.5C 870.167,1177.5 708.833,1177.5 547.5,1177.5C 547.5,1015.83 547.5,854.167 547.5,692.5C 571.994,691.269 596.327,689.935 620.5,688.5 Z M 1081.5,688.5 C 1098.08,688.175 1114.58,688.508 1131,689.5C 1131.5,771.499 1131.67,853.499 1131.5,935.5C 1114.5,935.5 1097.5,935.5 1080.5,935.5C 1080.17,853.096 1080.5,770.763 1081.5,688.5 Z"/></g>
</svg>
