<svg width="40" height="43" viewBox="0 0 40 43" fill="none" xmlns="http://www.w3.org/2000/svg">
<path d="M28.7578 26.3879L26.1096 41.3641C26.0671 41.6097 25.8736 41.7874 25.647 41.7874H14.2661C14.0395 41.7874 13.846 41.6097 13.8035 41.3641L11.1554 26.3879C11.0987 26.0639 11.3206 25.7661 11.618 25.7661H15.5642C15.8805 25.7661 16.1401 26.0482 16.1401 26.4036C16.1401 27.851 17.2022 29.0267 18.5098 29.0267H21.4081C22.7156 29.0267 23.7777 27.851 23.7777 26.4036C23.7777 26.0535 24.0326 25.7661 24.3536 25.7661H28.2999C28.5878 25.7661 28.8144 26.0639 28.7578 26.3879Z" stroke="#D6CEBA" stroke-width="1.5" stroke-miterlimit="10"/>
<path d="M15.0725 17.2538H13.1654C12.9058 17.2538 12.6934 17.489 12.6934 17.7764V25.7243H15.5445V17.7764C15.5445 17.4838 15.3321 17.2538 15.0725 17.2538Z" stroke="#D6CEBA" stroke-width="1.5" stroke-miterlimit="10"/>
<path d="M15.5449 25.8236V25.7765V18.8527C15.5449 18.5288 15.7809 18.2623 16.0783 18.2623H17.8626C18.1553 18.2623 18.3961 18.5235 18.3961 18.8527V28.9954" stroke="#D6CEBA" stroke-width="1.5" stroke-miterlimit="10"/>
<path d="M20.5423 16.1146H19.0931C18.7061 16.1146 18.3945 16.4595 18.3945 16.888V28.8909C18.3945 28.9641 18.4465 29.0215 18.5125 29.0215H21.1276C21.1937 29.0215 21.2456 28.9641 21.2456 28.8909V16.888C21.2409 16.4647 20.9294 16.1146 20.5423 16.1146Z" stroke="#D6CEBA" stroke-width="1.5" stroke-miterlimit="10"/>
<path d="M21.241 28.9901L21.2363 19.8665C21.2363 19.8456 21.2363 19.8247 21.241 19.8038C21.2694 19.5216 21.4818 19.3074 21.7414 19.3074H23.5824C23.8137 19.3074 24.0119 19.485 24.0686 19.7202C24.078 19.7672 24.0875 19.8195 24.0875 19.8665V25.8705" stroke="#D6CEBA" stroke-width="1.5" stroke-miterlimit="10"/>
<path d="M24.0762 25.8393V19.7202V17.7607C24.0762 17.421 24.3264 17.144 24.6332 17.144H26.3703C26.6771 17.144 26.9273 17.421 26.9273 17.7607V21.5544V25.7661" stroke="#D6CEBA" stroke-width="1.5" stroke-miterlimit="10"/>
<path d="M26.9258 21.5544C27.0816 21.5021 27.2468 21.476 27.4214 21.4865C28.1814 21.5335 28.7667 22.2494 28.7667 23.0907V26.2887" stroke="#D6CEBA" stroke-width="1.5" stroke-miterlimit="10"/>
<path d="M12.6928 25.7661V25.7191V21.4812H11.9187C11.4891 21.4812 11.1445 21.8679 11.1445 22.3382V26.2834" stroke="#D6CEBA" stroke-width="1.5" stroke-miterlimit="10"/>
<path d="M19.8355 36.3059C21.1598 36.3059 22.2334 35.1174 22.2334 33.6514C22.2334 32.1853 21.1598 30.9968 19.8355 30.9968C18.5111 30.9968 17.4375 32.1853 17.4375 33.6514C17.4375 35.1174 18.5111 36.3059 19.8355 36.3059Z" stroke="#D6CEBA" stroke-width="1.5" stroke-miterlimit="10"/>
<path d="M26.3882 39.7756H17.4336" stroke="#D6CEBA" stroke-width="1.5" stroke-miterlimit="10"/>
<path d="M11.1441 25.0502H6.78711" stroke="#D6CEBA" stroke-width="1.5" stroke-miterlimit="10" stroke-linecap="round" stroke-linejoin="round"/>
<path d="M4.82498 25.0502H1.97857H1.29883L2.65831 41.7874H14.2658H16.0643" stroke="#D6CEBA" stroke-width="1.5" stroke-miterlimit="10" stroke-linecap="round" stroke-linejoin="round"/>
<path d="M17.2486 18.1003L17.7584 11.1556C14.9545 11.1556 11.7258 12.1015 9.48828 13.7841" stroke="#D6CEBA" stroke-width="1.5" stroke-miterlimit="10" stroke-linecap="round" stroke-linejoin="round"/>
<path d="M11.1441 25.0502H6.78711" stroke="#D6CEBA" stroke-width="1.5" stroke-miterlimit="10" stroke-linecap="round" stroke-linejoin="round"/>
<path d="M13.4056 17.2538C12.2727 15.9161 10.951 14.7403 9.48765 13.7893C7.61836 12.5665 5.51777 11.7096 3.29917 11.349C2.69968 11.2497 2.09075 11.1922 1.47237 11.1713C1.30244 11.1661 1.12778 11.1609 0.953125 11.1609L1.97274 25.0554H8.39251" stroke="#D6CEBA" stroke-width="1.5" stroke-miterlimit="10" stroke-linecap="round" stroke-linejoin="round"/>
<path d="M6.20703 7.93151C6.53746 7.83222 6.88677 7.77997 7.25025 7.77997C9.47829 7.77997 11.2815 9.7761 11.2815 12.2425C11.2815 12.3941 11.2768 12.5508 11.2626 12.6971" stroke="#D6CEBA" stroke-width="1.5" stroke-miterlimit="10" stroke-linecap="round" stroke-linejoin="round"/>
<path d="M3.30078 11.3438C3.43767 10.6018 3.73978 9.92772 4.16461 9.36859" stroke="#D6CEBA" stroke-width="1.5" stroke-miterlimit="10" stroke-linecap="round" stroke-linejoin="round"/>
<path d="M1.47656 11.1661C2.2932 7.18429 5.51252 4.211 9.35967 4.211C13.2068 4.211 16.4261 7.18429 17.2475 11.1661" stroke="#D6CEBA" stroke-width="1.5" stroke-miterlimit="10" stroke-linecap="round" stroke-linejoin="round"/>
<path d="M8.0625 7.87405C8.11915 7.77477 8.16635 7.67026 8.19939 7.56053C8.39293 6.9387 8.91218 6.56769 9.45975 6.56769C9.67688 6.56769 9.89402 6.62517 10.1017 6.75058C10.3 6.87077 10.5218 6.93347 10.7437 6.93347C10.942 6.93347 11.1402 6.88644 11.3243 6.78716C11.5131 6.68787 11.7114 6.63562 11.9049 6.63562C12.4761 6.63562 13.0142 7.04321 13.1842 7.70161C13.2455 7.93154 13.3541 8.13533 13.5004 8.30777C13.6468 8.47498 13.8261 8.60562 14.0291 8.684C14.5908 8.89825 14.926 9.47305 14.926 10.0792C14.926 10.3196 14.8741 10.5599 14.7608 10.7899C14.6475 11.0198 14.5908 11.2758 14.5956 11.5319" stroke="#D6CEBA" stroke-width="1.5" stroke-miterlimit="10" stroke-linejoin="round"/>
<path d="M22.7108 19.3074L22.2482 15.3988C22.1396 14.4738 22.791 13.6534 23.6313 13.6534H37.6321C38.4723 13.6534 39.1237 14.4738 39.0151 15.3988L35.9185 41.7874H25.6469" stroke="#D6CEBA" stroke-width="1.5" stroke-miterlimit="10"/>
<path d="M22.3242 16.0468H38.9354" stroke="#D6CEBA" stroke-width="1.5" stroke-miterlimit="10"/>
<path d="M34.8126 11.2079H26.4433C25.6739 11.2079 25.0508 11.8976 25.0508 12.7494V13.6482H36.2099V12.7494C36.2099 11.8976 35.582 11.2079 34.8126 11.2079Z" stroke="#D6CEBA" stroke-width="1.5" stroke-miterlimit="10"/>
<path d="M29.715 5.67936L34.6007 2.01631C34.9217 1.77593 35.3559 1.86999 35.5683 2.22533L36.149 3.18681C36.3661 3.54214 36.2811 4.02289 35.9601 4.25803L32.1555 7.09024C31.962 7.23133 31.8487 7.4717 31.8487 7.73298V11.2079H29.4082V6.31687C29.4082 6.06082 29.5215 5.82045 29.715 5.67936Z" stroke="#D6CEBA" stroke-width="1.5" stroke-miterlimit="10"/>
<ellipse cx="4.45647" cy="16.8287" rx="0.714285" ry="0.790709" fill="#D6CEBA"/>
<ellipse cx="3.5053" cy="14.193" rx="0.714285" ry="0.790709" fill="#D6CEBA"/>
<ellipse cx="7.31389" cy="15.2473" rx="0.714285" ry="0.790709" fill="#D6CEBA"/>
</svg>
