<svg width="40" height="43" viewBox="0 0 40 43" fill="none" xmlns="http://www.w3.org/2000/svg">
<path d="M20.4062 1.82886H18.8438C17.5513 1.82886 16.5 2.88019 16.5 4.17261V5.08813C16.2556 5.00146 15.9928 4.95386 15.7188 4.95386H14.1562C13.8514 4.95386 13.5599 5.01306 13.2923 5.11957C13.0213 4.125 12.1107 3.39136 11.0312 3.39136H9.46875C8.17633 3.39136 7.125 4.44269 7.125 5.73511V9.70209C4.56549 10.119 4 12.5164 4 15.1101V17.1414C4 17.2115 4.01251 17.2769 4.01526 17.2958C4.01556 17.2976 4.01587 17.2991 4.01648 17.301L8.70215 41.1981C8.77386 41.5643 9.09521 41.8289 9.46875 41.8289H29.7812C30.1548 41.8289 30.4761 41.5643 30.5479 41.1978C30.5616 41.1303 31.9379 34.1082 35.2335 17.3004C35.2338 17.2991 35.2341 17.2979 35.2344 17.2967C35.2399 17.2628 35.25 17.2079 35.25 17.1414V15.1101C35.25 12.5164 34.6845 10.119 32.125 9.70209V5.73511C32.125 4.44269 31.0737 3.39136 29.7812 3.39136H28.2188C26.9263 3.39136 25.875 4.44269 25.875 5.73511V6.65063C25.6306 6.56396 25.3678 6.51636 25.0938 6.51636H23.5312C23.2572 6.51636 22.9944 6.56396 22.75 6.65063V4.17261C22.75 2.88019 21.6987 1.82886 20.4062 1.82886V1.82886ZM18.0625 4.17261C18.0625 3.7417 18.4128 3.39136 18.8438 3.39136H20.4062C20.8372 3.39136 21.1875 3.7417 21.1875 4.17261V21.0476H18.0625V4.17261ZM14.1562 6.51636H15.7188C16.1497 6.51636 16.5 6.8667 16.5 7.29761V20.7836C15.1841 20.3134 14.1743 19.2812 13.7348 17.9629C13.6533 17.7181 13.53 17.4886 13.375 17.2851V7.29761C13.375 6.8667 13.7253 6.51636 14.1562 6.51636ZM8.6875 5.73511C8.6875 5.3042 9.03784 4.95386 9.46875 4.95386H11.0312C11.4622 4.95386 11.8125 5.3042 11.8125 5.73511V16.3799C11.713 16.3671 11.6126 16.3601 11.511 16.3601H8.6875V5.73511ZM6.06055 12.1664C6.23877 11.8362 6.51923 11.4703 7.125 11.3006V16.3601H5.5625V15.1101C5.5625 13.7502 5.72546 12.7874 6.06055 12.1664ZM29.751 37.1414H15.7188C15.2872 37.1414 14.9375 37.4911 14.9375 37.9226C14.9375 38.3541 15.2872 38.7039 15.7188 38.7039H29.4446L29.1382 40.2664H10.1118L5.73065 17.9226H11.511C11.8491 17.9226 12.1482 18.1436 12.2526 18.4573C13.0939 20.9817 15.4474 22.6101 18.0149 22.6101H21.2791C23.9265 22.6101 26.233 20.8807 27.0414 18.4564C27.1448 18.1457 27.4393 17.9226 27.783 17.9226H33.5193L29.751 37.1414ZM33.6875 15.1101V16.3601H32.125V11.2991C33.0866 11.5719 33.6875 12.5146 33.6875 15.1101ZM27.4375 5.73511C27.4375 5.3042 27.7878 4.95386 28.2188 4.95386H29.7812C30.2122 4.95386 30.5625 5.3042 30.5625 5.73511V16.3601H27.783C27.6664 16.3601 27.551 16.3693 27.4375 16.386V5.73511ZM23.5312 8.07886H25.0938C25.5247 8.07886 25.875 8.4292 25.875 8.86011V17.3431C25.7395 17.5323 25.633 17.7395 25.5588 17.9629C25.113 19.3002 24.0555 20.3451 22.75 20.7992V8.86011C22.75 8.4292 23.1003 8.07886 23.5312 8.07886Z" fill="#D6CEBA"/>
<path d="M19.625 24.1726C17.0402 24.1726 14.9375 26.2753 14.9375 28.8601C14.9375 31.4449 17.0402 33.5476 19.625 33.5476C22.2098 33.5476 24.3125 31.4449 24.3125 28.8601C24.3125 26.2753 22.2098 24.1726 19.625 24.1726ZM19.625 31.9851C17.902 31.9851 16.5 30.5831 16.5 28.8601C16.5 27.1371 17.902 25.7351 19.625 25.7351C21.348 25.7351 22.75 27.1371 22.75 28.8601C22.75 30.5831 21.348 31.9851 19.625 31.9851Z" fill="#D6CEBA"/>
</svg>
