<?xml version="1.0" encoding="UTF-8"?>
<!DOCTYPE svg PUBLIC "-//W3C//DTD SVG 1.1//EN" "http://www.w3.org/Graphics/SVG/1.1/DTD/svg11.dtd">
<svg xmlns="http://www.w3.org/2000/svg" version="1.1" width="60px" height="56px" style="shape-rendering:geometricPrecision; text-rendering:geometricPrecision; image-rendering:optimizeQuality; fill-rule:evenodd; clip-rule:evenodd" xmlns:xlink="http://www.w3.org/1999/xlink">
<g><path style="opacity:0.666" fill="#ded0bb" d="M 28.5,0.5 C 32.0317,1.85391 35.1984,3.85391 38,6.5C 39.3785,0.270595 42.7119,-1.06274 48,2.5C 46.6655,11.1694 49.9988,17.1694 58,20.5C 59.3097,24.7004 57.8097,27.3671 53.5,28.5C 45.5,22.8333 37.5,17.1667 29.5,11.5C 21.6939,16.8061 14.0273,22.3061 6.5,28C 1.73862,27.6564 0.0719517,25.1564 1.5,20.5C 10.5421,13.7772 19.5421,7.11058 28.5,0.5 Z M 28.5,3.5 C 31.2827,5.06653 33.9493,6.89986 36.5,9C 38.1341,9.49351 39.8008,9.66018 41.5,9.5C 41.5,7.5 41.5,5.5 41.5,3.5C 42.8333,3.5 44.1667,3.5 45.5,3.5C 43.948,11.8753 46.948,17.8753 54.5,21.5C 55.7445,22.9554 55.5778,24.2887 54,25.5C 46.2223,19.2139 38.0557,13.5472 29.5,8.5C 21.1113,13.7834 12.9447,19.4501 5,25.5C 3.14377,23.2626 3.64377,21.4293 6.5,20C 14.0803,14.7226 21.4136,9.22264 28.5,3.5 Z"/></g>
<g><path style="opacity:0.705" fill="#ded0bb" d="M 10.5,26.5 C 11.4959,26.4142 12.3292,26.7476 13,27.5C 13.3333,35.1667 13.6667,42.8333 14,50.5C 17.0567,51.4505 20.2234,51.7839 23.5,51.5C 23.5,46.5 23.5,41.5 23.5,36.5C 27.7675,36.203 31.9341,36.5363 36,37.5C 36.4992,42.1548 36.6658,46.8215 36.5,51.5C 39.1873,51.6641 41.854,51.4974 44.5,51C 45.1258,50.2496 45.6258,49.4162 46,48.5C 46.1687,41.1441 46.6687,33.8108 47.5,26.5C 48.2868,27.2421 48.9535,28.0754 49.5,29C 48.1667,35 48.1667,41 49.5,47C 49.0417,49.831 47.7084,52.1643 45.5,54C 34.8333,54.6667 24.1667,54.6667 13.5,54C 12.6667,53.1667 11.8333,52.3333 11,51.5C 10.5003,43.1733 10.3336,34.84 10.5,26.5 Z M 26.5,39.5 C 28.8333,39.5 31.1667,39.5 33.5,39.5C 33.5,43.5 33.5,47.5 33.5,51.5C 31.1667,51.5 28.8333,51.5 26.5,51.5C 26.5,47.5 26.5,43.5 26.5,39.5 Z"/></g>
</svg>
