<svg width="40" height="43" viewBox="0 0 40 43" fill="none" xmlns="http://www.w3.org/2000/svg">
<path d="M14.9277 23.9396H10.9746L12.498 40.902H27.5333L29.0567 23.9396H18.1365" stroke="#D6CEBA" stroke-width="1.5" stroke-miterlimit="10" stroke-linecap="round" stroke-linejoin="round"/>
<path d="M29.1555 13.3676L29.4373 9.86389C26.2916 9.86389 22.6737 10.8236 20.1602 12.5297" stroke="#D6CEBA" stroke-width="1.5" stroke-miterlimit="10" stroke-linecap="round" stroke-linejoin="round"/>
<path d="M18.1367 23.9396H28.2952L28.8594 17.0164" stroke="#D6CEBA" stroke-width="1.5" stroke-miterlimit="10" stroke-linecap="round" stroke-linejoin="round"/>
<path d="M28.295 23.9396L28.4321 22.2791C25.9795 15.4317 18.7741 9.86389 10.5938 9.86389L11.7363 23.9396H20.5" stroke="#D6CEBA" stroke-width="1.5" stroke-miterlimit="10" stroke-linecap="round" stroke-linejoin="round"/>
<path d="M16.4824 6.5963C16.8556 6.49729 17.2441 6.44397 17.6478 6.44397C20.1461 6.44397 22.1721 8.47002 22.1721 10.9683C22.1721 11.1282 22.1645 11.2806 22.1492 11.4329" stroke="#D6CEBA" stroke-width="1.5" stroke-miterlimit="10" stroke-linecap="round" stroke-linejoin="round"/>
<path d="M13.2207 10.0543C13.373 9.30029 13.7158 8.61478 14.1956 8.05115" stroke="#D6CEBA" stroke-width="1.5" stroke-miterlimit="10" stroke-linecap="round" stroke-linejoin="round"/>
<path d="M11.1719 9.87151C12.0935 5.83465 15.7038 2.82605 20.0225 2.82605C24.3412 2.82605 27.9515 5.84227 28.8731 9.87151" stroke="#D6CEBA" stroke-width="1.5" stroke-miterlimit="10" stroke-linecap="round" stroke-linejoin="round"/>
<path d="M18.5605 6.53539C18.6215 6.43637 18.6748 6.32974 18.7129 6.21549C18.9338 5.59092 19.5126 5.21008 20.1296 5.21008C20.3733 5.21008 20.6171 5.27102 20.8456 5.39288C21.0664 5.51475 21.3178 5.57569 21.5691 5.57569C21.79 5.57569 22.0185 5.52237 22.2242 5.42335C22.4375 5.32433 22.6583 5.27102 22.8792 5.27102C23.519 5.27102 24.1207 5.68232 24.3188 6.34497C24.3873 6.58109 24.5092 6.78674 24.6691 6.95431C24.8291 7.12188 25.0347 7.25898 25.2632 7.33515C25.8878 7.54841 26.2687 8.1349 26.2687 8.75186C26.2687 8.99559 26.2077 9.23932 26.0859 9.46783C25.9564 9.70394 25.8954 9.96291 25.9031 10.2219" stroke="#D6CEBA" stroke-width="1.5" stroke-miterlimit="10" stroke-linejoin="round"/>
<path d="M13.6328 14.2039C14.047 14.2039 14.3828 13.8681 14.3828 13.4539C14.3828 13.0397 14.047 12.7039 13.6328 12.7039C13.2186 12.7039 12.8828 13.0397 12.8828 13.4539C12.8828 13.8681 13.2186 14.2039 13.6328 14.2039Z" fill="#D6CEBA"/>
<path d="M18.2266 15.571C18.6408 15.571 18.9766 15.2353 18.9766 14.8211C18.9766 14.4068 18.6408 14.071 18.2266 14.071C17.8124 14.071 17.4766 14.4068 17.4766 14.8211C17.4766 15.2353 17.8124 15.571 18.2266 15.571Z" fill="#D6CEBA"/>
<path d="M15.3359 17.2117C15.7501 17.2117 16.0859 16.8759 16.0859 16.4617C16.0859 16.0475 15.7501 15.7117 15.3359 15.7117C14.9217 15.7117 14.5859 16.0475 14.5859 16.4617C14.5859 16.8759 14.9217 17.2117 15.3359 17.2117Z" fill="#D6CEBA"/>
</svg>
