<svg width="40" height="43" viewBox="0 0 40 43" fill="none" xmlns="http://www.w3.org/2000/svg">
<path d="M7.28688 2.42917L5.08602 11.6726H3.125C2.69352 11.6726 2.34375 12.0225 2.34375 12.4539V18.5093C2.34375 20.5594 1.85891 22.6134 0.942344 24.4482C0.893047 24.58 0 26.0374 0 28.1765V38.7039C0 40.3686 1.35078 41.8289 2.89062 41.8289H12.7344C14.6495 41.8289 16.0938 40.4854 16.0938 38.7039V28.1765C16.0938 26.0797 15.1859 24.5399 15.152 24.4492C14.2348 22.6134 13.75 20.5594 13.75 18.5093V12.4539C13.75 12.0225 13.4002 11.6726 12.9688 11.6726H11.0077L8.80687 2.42917C8.72305 2.07722 8.40867 1.82886 8.04688 1.82886C7.68508 1.82886 7.3707 2.07722 7.28688 2.42917V2.42917ZM14.5312 38.7039C14.5312 39.6092 13.7755 40.2664 12.7344 40.2664H2.89062C2.27648 40.2664 1.5625 39.5839 1.5625 38.7039V29.6414H3.35938C3.60531 29.6414 3.83695 29.5256 3.98445 29.3287C4.93789 28.0569 6.45656 27.2976 8.04688 27.2976C9.63719 27.2976 11.1559 28.0569 12.1093 29.3287C12.2569 29.5256 12.4884 29.6414 12.7344 29.6414H14.5312V38.7039ZM13.7548 25.1486C13.8072 25.2862 14.503 26.3871 14.5298 28.0789H13.1098C11.8566 26.6045 9.99281 25.7351 8.04688 25.7351C6.10094 25.7351 4.23711 26.6045 2.98391 28.0789H1.56391C1.59055 26.403 2.29211 25.2719 2.33945 25.1475C3.36445 23.096 3.90625 20.8005 3.90625 18.5093V17.9226H12.1875V18.5093C12.1875 20.8005 12.7293 23.096 13.7548 25.1486ZM12.1875 13.2351V16.3601H3.90625V13.2351H12.1875ZM9.40148 11.6726H6.69227L8.04688 5.98308L9.40148 11.6726Z" fill="#D6CEBA"/>
<path d="M8.04688 30.4226C6.32375 30.4226 4.92188 31.8245 4.92188 33.5476C4.92188 35.2707 6.32375 36.6726 8.04688 36.6726C9.77 36.6726 11.1719 35.2707 11.1719 33.5476C11.1719 31.8245 9.77 30.4226 8.04688 30.4226ZM8.04688 35.1101C7.18531 35.1101 6.48438 34.4092 6.48438 33.5476C6.48438 32.686 7.18531 31.9851 8.04688 31.9851C8.90844 31.9851 9.60938 32.686 9.60938 33.5476C9.60938 34.4092 8.90844 35.1101 8.04688 35.1101Z" fill="#D6CEBA"/>
<path d="M31.9531 25.7351H27.2656C26.8341 25.7351 26.4844 26.085 26.4844 26.5164C26.4844 26.9478 26.8341 27.2976 27.2656 27.2976H31.9531C32.3846 27.2976 32.7344 26.9478 32.7344 26.5164C32.7344 26.085 32.3846 25.7351 31.9531 25.7351Z" fill="#D6CEBA"/>
<path d="M31.9531 30.4226H27.2656C26.8341 30.4226 26.4844 30.7725 26.4844 31.2039C26.4844 31.6353 26.8341 31.9851 27.2656 31.9851H31.9531C32.3846 31.9851 32.7344 31.6353 32.7344 31.2039C32.7344 30.7725 32.3846 30.4226 31.9531 30.4226Z" fill="#D6CEBA"/>
<path d="M36.875 14.0164C35.3448 14.0164 34.0163 12.9275 33.716 11.4271C33.7144 11.4191 33.7127 11.4112 33.7109 11.4033L32.9371 8.07886H34.2969C34.7284 8.07886 35.0781 7.72901 35.0781 7.29761V4.95386C35.0781 3.23073 33.6762 1.82886 31.9531 1.82886H27.2656C25.5425 1.82886 24.1406 3.23073 24.1406 4.95386V7.29761C24.1406 7.72901 24.4904 8.07886 24.9219 8.07886H26.2816C26.2816 8.07886 25.5043 11.419 25.5027 11.4268C25.2008 12.9327 23.8773 14.0164 22.3438 14.0164C20.6206 14.0164 19.2188 15.4182 19.2188 17.1414C19.2188 18.1972 19.7464 19.1742 20.6307 19.7554C21.1462 20.0937 21.4266 20.663 21.3623 21.2439C21.2605 22.1855 19.6171 37.3925 19.5126 38.3592C19.3081 40.2031 20.7512 41.8289 22.6187 41.8289H34.0938C34.5252 41.8289 34.875 41.479 34.875 41.0476C34.875 40.6162 34.5252 40.2664 34.0938 40.2664H22.6187C21.6859 40.2664 20.9627 39.459 21.0659 38.5292L21.2665 36.6726H37.9523L38.1532 38.5314C38.2549 39.4488 37.5414 40.2664 36.6 40.2664H33.125C32.6935 40.2664 32.3438 40.6162 32.3438 41.0476C32.3438 41.479 32.6935 41.8289 33.125 41.8289H36.5999C38.4623 41.8289 39.9109 40.2068 39.7063 38.3614C37.757 20.3269 37.862 21.2959 37.8561 21.2413C37.792 20.663 38.0725 20.0937 38.5884 19.7551C39.4723 19.1742 40 18.1972 40 17.1414C40 15.415 38.6017 14.0164 36.875 14.0164ZM25.7031 6.51636V4.95386C25.7031 4.09229 26.4041 3.39136 27.2656 3.39136H31.9531C32.8147 3.39136 33.5156 4.09229 33.5156 4.95386V6.51636C32.5345 6.51636 26.5163 6.51636 25.7031 6.51636ZM21.4354 35.1101L22.7865 22.6101H26.1155C26.3907 22.6101 26.6455 22.4653 26.7865 22.229C27.5305 20.9817 28.5594 20.2664 29.6094 20.2664C30.6594 20.2664 31.6883 20.9817 32.4322 22.229C32.5731 22.4653 32.828 22.6101 33.1031 22.6101H36.4325L37.7834 35.1101H21.4354ZM37.7307 18.4491C36.8266 19.0425 36.2952 20.0154 36.2861 21.0476H33.5309C32.5105 19.552 31.1009 18.7039 29.6094 18.7039C28.1178 18.7039 26.7082 19.552 25.6878 21.0476H22.9325C22.923 20.0143 22.3917 19.0421 21.4885 18.4494C21.0456 18.1584 20.7812 17.6694 20.7812 17.1414C20.7812 16.2798 21.4822 15.5789 22.3438 15.5789C24.6195 15.5789 26.5795 13.9732 27.0323 11.7465L27.8859 8.07886H31.3328L32.1865 11.7464C32.6372 13.9679 34.6069 15.5789 36.875 15.5789C37.7377 15.5789 38.4375 16.2782 38.4375 17.1414C38.4375 17.6694 38.1731 18.1584 37.7307 18.4491Z" fill="#D6CEBA"/>
</svg>
