<svg width="40" height="43" viewBox="0 0 40 43" fill="none" xmlns="http://www.w3.org/2000/svg">
<path d="M20.4238 20.2664C20.8553 20.2664 21.2051 19.9166 21.2051 19.4851C21.2051 19.0536 20.8553 18.7039 20.4238 18.7039C19.9924 18.7039 19.6426 19.0536 19.6426 19.4851C19.6426 19.9166 19.9924 20.2664 20.4238 20.2664Z" fill="#D6CEBA"/>
<path d="M11.0488 31.9851C11.4803 31.9851 11.8301 31.6353 11.8301 31.2039C11.8301 30.7724 11.4803 30.4226 11.0488 30.4226C10.6174 30.4226 10.2676 30.7724 10.2676 31.2039C10.2676 31.6353 10.6174 31.9851 11.0488 31.9851Z" fill="#D6CEBA"/>
<path d="M24.0435 34.7165C26.6386 32.1212 26.6391 27.9204 24.0435 25.3248C23.7273 25.0086 23.3795 24.7244 23.0102 24.4802C22.7004 24.2754 22.2895 24.317 22.0269 24.5795L13.9066 32.6998C13.6438 32.9625 13.6025 33.374 13.8077 33.6838C14.0534 34.0545 14.3374 34.4019 14.6519 34.7164C17.2471 37.3116 21.4479 37.312 24.0435 34.7165V34.7165ZM15.4913 33.3249L22.652 26.1641C22.7507 26.2488 22.8464 26.3375 22.9386 26.4296C24.9187 28.4097 24.9187 31.6315 22.9386 33.6115C20.9586 35.5916 17.7367 35.5915 15.7568 33.6115C15.6648 33.5196 15.5762 33.424 15.4913 33.3249Z" fill="#D6CEBA"/>
<path d="M16.0867 25.879C16.434 25.5316 16.7165 25.1324 16.9262 24.6925C17.0686 24.3938 17.0074 24.0378 16.7734 23.8039L12.0843 19.1148C11.85 18.8805 11.4934 18.8195 11.1945 18.9626C10.7554 19.1728 10.3568 19.4553 10.01 19.8021C8.33028 21.481 8.32974 24.1998 10.0099 25.8791C11.685 27.554 14.4109 27.5538 16.0867 25.879V25.879ZM11.1148 20.9071C11.2078 20.8142 11.3065 20.7285 11.4103 20.6504L15.2383 24.4785C15.1604 24.5825 15.0749 24.681 14.982 24.774C13.9155 25.84 12.1807 25.8401 11.1147 24.774C10.0458 23.7059 10.0454 21.9758 11.1148 20.9071V20.9071Z" fill="#D6CEBA"/>
<path d="M37.6897 20.657C37.6897 15.703 33.6242 11.6726 28.6272 11.6726H26.3248L28.1665 7.62089C28.2951 7.338 28.2439 7.00589 28.036 6.77495C27.8281 6.54394 27.5032 6.45823 27.2084 6.55644L25.8247 7.01737C22.6237 8.08472 19.1528 7.26511 16.7664 4.8787C14.7996 2.91198 12.1846 1.82886 9.40303 1.82886H6.36162C6.12256 1.82886 5.8967 1.93831 5.74857 2.12589C5.60045 2.31347 5.54631 2.55854 5.60162 2.79112L7.89373 12.4182C6.93006 15.3092 4.45764 22.7271 3.60561 25.2834C1.96537 30.2033 3.73998 35.634 7.92412 38.6442V41.0476C7.92412 41.4791 8.27389 41.8289 8.70537 41.8289H21.3929C21.8244 41.8289 22.1741 41.4791 22.1741 41.0476C22.1741 40.6161 21.8244 40.2664 21.3929 40.2664H9.48662V38.2351C9.48662 37.9739 9.35607 37.73 9.13865 37.585C5.29092 35.0203 3.62514 30.1649 5.08787 25.7775L8.48725 15.5789H25.3297L28.729 25.7773C29.0511 26.7443 29.2275 27.7478 29.2533 28.7604C29.3472 32.314 27.6369 35.6129 24.6783 37.585C24.4609 37.7299 24.3303 37.9739 24.3303 38.2351V40.2664H20.4241C19.9926 40.2664 19.6429 40.6161 19.6429 41.0476C19.6429 41.4791 19.9926 41.8289 20.4241 41.8289H25.1115C25.543 41.8289 25.8928 41.4791 25.8928 41.0476V38.6441C28.9749 36.4256 30.7084 32.9587 30.8132 29.3716C34.834 28.3665 37.6897 24.7585 37.6897 20.657ZM24.4004 12.1306C24.323 12.3009 24.3077 12.5117 24.3704 12.7009L24.8089 14.0164H9.00803L9.44646 12.7009C9.49248 12.5628 9.49904 12.4145 9.46529 12.2728L7.35068 3.39136H9.40303C11.7672 3.39136 13.9898 4.31198 15.6615 5.98362C17.0303 7.35237 18.7494 8.31089 20.6332 8.75558C22.4101 9.17511 24.2606 9.12011 26.0058 8.59855L24.4004 12.1306ZM30.2113 25.2834C29.5353 23.2552 26.6829 14.6977 26.1954 13.2351H28.6272C32.7627 13.2351 36.1272 16.5646 36.1272 20.657C36.1272 23.9221 33.8689 26.8389 30.7511 27.7689C30.6611 26.9263 30.4811 26.0935 30.2113 25.2834Z" fill="#D6CEBA"/>
</svg>
