<svg width="42" height="43" viewBox="0 0 42 43" fill="none" xmlns="http://www.w3.org/2000/svg">
<path d="M40.3333 17.8495H1.66667C1.2985 17.8495 1 18.148 1 18.5162C1 26.9882 5.33 34.0122 12.3333 36.9648V39.1828C12.3333 39.551 12.6318 39.8495 13 39.8495H29C29.3682 39.8495 29.6667 39.551 29.6667 39.1828V36.9648C36.67 34.0122 41 26.9882 41 18.5162C41 18.148 40.7015 17.8495 40.3333 17.8495ZM28.7567 35.8955C28.5013 35.9956 28.3333 36.2419 28.3333 36.5162V38.5162H13.6667V36.5162C13.6667 36.2419 13.4987 35.9956 13.2433 35.8955C6.7 33.3288 2.56667 26.9615 2.34333 19.1828H39.6567C39.4333 26.9615 35.3 33.3288 28.7567 35.8955Z" fill="#D6CEBA" stroke="#D6CEBA" stroke-width="0.3"/>
<path d="M37.8073 20.5502C37.4598 20.472 37.1123 20.6808 37.0181 21.0243L36.8261 21.7929C35.6388 26.5396 32.5254 30.6769 28.7001 32.5889C28.372 32.7561 28.2416 33.1575 28.4088 33.4856C28.5219 33.7077 28.7495 33.8481 28.9988 33.8496C29.1017 33.8506 29.2034 33.8279 29.2961 33.7829C33.4594 31.7009 36.8408 27.2309 38.1194 22.1163L38.3114 21.3469C38.3923 20.9878 38.1666 20.631 37.8073 20.5502Z" fill="#D6CEBA" stroke="#D6CEBA" stroke-width="0.3"/>
<path d="M15.2671 7.89292C14.9275 7.118 14.9129 6.23933 15.2264 5.45358L15.5151 4.77891C15.6715 4.44558 15.5281 4.04858 15.1948 3.89216C14.8614 3.73575 14.4644 3.87916 14.308 4.2125C14.3017 4.226 14.2958 4.23966 14.2904 4.2535L14.0011 4.92825C13.5322 6.06816 13.5563 7.35142 14.0678 8.47292C14.4073 9.24783 14.4219 10.1265 14.1084 10.9123L13.8198 11.5869C13.6633 11.9203 13.8068 12.3173 14.1401 12.4737C14.4734 12.6301 14.8704 12.4867 15.0268 12.1533C15.0332 12.1398 15.039 12.1262 15.0444 12.1123L15.3338 11.4377C15.8027 10.2977 15.7785 9.01442 15.2671 7.89292Z" fill="#D6CEBA" stroke="#D6CEBA" stroke-width="0.3"/>
<path d="M21.2671 7.89291C20.9275 7.11799 20.9129 6.23933 21.2264 5.45358L21.5151 4.77891C21.6715 4.44558 21.5281 4.04858 21.1948 3.89216C20.8614 3.73575 20.4644 3.87916 20.308 4.2125C20.3017 4.226 20.2959 4.23966 20.2904 4.2535L20.0011 4.92824C19.5322 6.06816 19.5563 7.35141 20.0678 8.47291C20.4074 9.24782 20.4219 10.1265 20.1084 10.9122L19.8198 11.5869C19.6633 11.9202 19.8068 12.3172 20.1401 12.4737C20.4734 12.6301 20.8704 12.4866 21.0269 12.1533C21.0332 12.1398 21.039 12.1262 21.0444 12.1123L21.3338 11.4377C21.8027 10.2977 21.7785 9.01441 21.2671 7.89291Z" fill="#D6CEBA" stroke="#D6CEBA" stroke-width="0.3"/>
<path d="M27.2671 7.8929C26.9275 7.11798 26.9129 6.23932 27.2264 5.45357L27.5151 4.7789C27.6715 4.44557 27.528 4.04857 27.1948 3.89215C26.8614 3.73573 26.4644 3.87923 26.308 4.21248C26.3017 4.22598 26.2958 4.23965 26.2904 4.25348L26.0011 4.92823C25.5322 6.06815 25.5563 7.3514 26.0678 8.4729C26.4073 9.24782 26.4219 10.1265 26.1084 10.9122L25.8198 11.5869C25.6633 11.9202 25.8068 12.3172 26.1401 12.4736C26.4734 12.6301 26.8704 12.4866 27.0268 12.1533C27.0332 12.1398 27.039 12.1261 27.0444 12.1123L27.3338 11.4376C27.8027 10.2976 27.7785 9.0144 27.2671 7.8929Z" fill="#D6CEBA" stroke="#D6CEBA" stroke-width="0.3"/>
</svg>
